<?xml version="1.0" encoding="utf-8"?>
<!-- Generator: Adobe Illustrator 25.2.3, SVG Export Plug-In . SVG Version: 6.00 Build 0)  -->
<svg version="1.1" id="Layer_1" xmlns="http://www.w3.org/2000/svg" xmlns:xlink="http://www.w3.org/1999/xlink" x="0px" y="0px"
	 viewBox="0 0 700.74 220.89" style="enable-background:new 0 0 700.74 220.89;" xml:space="preserve">
<style type="text/css">
	.st0{fill:url(#SVGID_1_);}
	.st1{fill:url(#SVGID_2_);}
	.st2{fill:url(#SVGID_3_);}
	.st3{fill:#1A1F4C;}
	.st4{fill:#FFFFFF;}
	.st5{fill:#62B9E8;}
</style>
<g>
	<g>
		<g>
			<g>
				
					<linearGradient id="SVGID_1_" gradientUnits="userSpaceOnUse" x1="-134.6782" y1="15.6335" x2="-134.6782" y2="153.8571" gradientTransform="matrix(-1 0 0 1 -34.6917 0)">
					<stop  offset="0" style="stop-color:#FFFFFF"/>
					<stop  offset="1" style="stop-color:#62B9E8"/>
				</linearGradient>
				<path class="st0" d="M80.86,190.39c-0.03,10.91,8.9,19.16,19.04,19.14c10.33-0.02,19.15-8.49,19.22-18.87
					c0.07-10.79-8.68-19.39-19.09-19.29C89.9,171.18,80.89,179.49,80.86,190.39z M94.06,190.47c-0.02-3.4,2.54-5.87,5.94-5.87
					c3.27,0.01,5.75,2.55,5.89,5.76c0.12,2.77-2.53,6.2-5.87,5.89C97.33,196.53,94.08,194.4,94.06,190.47z"/>
				
					<linearGradient id="SVGID_2_" gradientUnits="userSpaceOnUse" x1="-98.4746" y1="15.6335" x2="-98.4746" y2="153.8571" gradientTransform="matrix(-1 0 0 1 -34.6917 0)">
					<stop  offset="0" style="stop-color:#FFFFFF"/>
					<stop  offset="1" style="stop-color:#62B9E8"/>
				</linearGradient>
				<path class="st1" d="M44.67,30.4c-0.03,9.85,7.84,19.16,19.06,19.12c10.95-0.03,19.16-8.92,19.17-19.06
					c0.01-10.36-8.52-19.2-19.09-19.1C53.11,11.27,44.7,20.09,44.67,30.4z M57.91,30.45c0-3.31,2.61-5.97,5.87-5.97
					c3.16,0,5.96,2.8,5.97,5.97c0,3.23-2.7,5.82-5.95,5.93C60.88,36.48,57.64,33.54,57.91,30.45z"/>
			</g>
			<g>
				<g>
					<g>
						
							<linearGradient id="SVGID_3_" gradientUnits="userSpaceOnUse" x1="-120.3934" y1="15.6335" x2="-120.3934" y2="153.8571" gradientTransform="matrix(-1 0 0 1 -34.6917 0)">
							<stop  offset="0" style="stop-color:#FFFFFF"/>
							<stop  offset="1" style="stop-color:#62B9E8"/>
						</linearGradient>
						<path class="st2" d="M11.09,155.14c0.21,5.49,2.51,9.95,6.58,13.57c7.39,6.55,19.72,6.37,26.99-1.99
							c6.8-7.81,6.9-21.9-5.32-29.47v-7.32c0-9.34-0.03-18.68,0-28.02c0.03-8.19,3.08-15.04,9.47-20.24c3.69-3,7.94-4.72,12.73-5.27
							c5.98-0.68,11.46,0.55,16.46,3.8c5.94,3.86,9.66,9.29,10.97,16.28c0.27,1.46,0.4,2.96,0.42,4.45c0.05,4.9,0.02,9.8,0.02,14.7
							c0,0.28-0.05,0.55-0.07,0.91c-0.76,0.03-1.01-0.57-1.37-0.94c-5.27-5.49-10.54-10.98-15.8-16.49c-1.34-1.4-2.82-2.5-4.75-2.99
							c-6.54-1.65-11.6,3.48-11.59,8.54c0.01,6.34-0.18,12.69,0.08,19.02c0.24,5.87,1.9,11.45,4.65,16.65
							c6.21,11.76,15.79,19.27,28.71,22.53c4.29,1.08,8.65,1.5,13.02,1.14c11.22-0.94,20.86-5.36,28.68-13.57
							c5.92-6.22,9.63-13.6,11.21-22c0.56-2.98,0.72-6.06,0.74-9.11c0.08-11.01,0.03-22.02,0.03-33.03c0-0.39,0-0.78,0-1.15h17.4
							l-7.99-13.85l-12.7-21.99l-4.66-8.07l-4.25,7.35L115.81,74.4l-6.2,10.73h14.78v0.71c0,11.53,0.05,23.06-0.02,34.6
							c-0.04,6.93-2.48,12.97-7.46,17.83c-4.92,4.8-10.83,7.12-17.76,7.18c-11.03,0.09-20.59-7.64-23.64-17.23
							c-0.85-2.67-1.14-5.39-1.15-8.16c-0.02-4.67-0.01-9.34-0.01-14.01c0-0.27,0.05-0.55,0.11-1.09c0.49,0.4,0.84,0.64,1.13,0.93
							c5.35,5.58,10.69,11.16,16.03,16.74c1.55,1.62,3.35,2.68,5.63,3.12c4.5,0.86,8.92-2.19,10.16-5.92
							c0.32-0.97,0.52-2.02,0.53-3.03c0.03-6.23,0.19-12.46-0.08-18.68c-0.29-6.71-2.32-13-5.75-18.79
							c-6.37-10.76-15.72-17.56-27.82-20.61c-3.54-0.89-7.16-1.09-10.8-1.03c-9.41,0.14-17.84,3.14-25.33,8.77
							c-7.97,6-13.15,13.91-15.82,23.49c-1.1,3.96-1.48,8.02-1.48,12.12c-0.01,11.01-0.01,22.02-0.01,33.04v2.23
							C14.41,141.47,10.79,147.24,11.09,155.14z M94.79,115.79c-0.02-1.81,1.55-3.56,3.39-3.77c2.06-0.24,3.59,1.06,4.25,3.72
							c-0.69,2.91-2,3.96-4.51,3.67C96.29,119.2,94.81,117.5,94.79,115.79z M68.97,105.08c0.02,1.99-1.89,3.82-3.92,3.75
							c-2.01-0.07-3.72-1.84-3.68-3.8c0.04-1.93,1.9-3.74,3.82-3.71C67.12,101.33,68.95,103.15,68.97,105.08z M24.23,154.18
							c0-3.24,2.59-5.8,5.82-5.83c3.34-0.03,5.96,2.53,5.97,5.83c0.01,3.29-2.65,6.07-5.88,5.96
							C26.68,160.04,24.23,157.44,24.23,154.18z"/>
					</g>
				</g>
			</g>
		</g>
	</g>
	<g>
		<g>
			<g>
				<path class="st3" d="M228.05,69.91c-0.37,0-0.7-0.23-0.83-0.57l-4.88-12.77h-23.02l-4.59,12.75c-0.13,0.35-0.46,0.59-0.83,0.59
					h-12.39c-0.3,0-0.57-0.15-0.74-0.39s-0.19-0.56-0.08-0.83L204.07,13c0.14-0.33,0.46-0.54,0.82-0.54h12.39
					c0.35,0,0.67,0.21,0.81,0.54l23.76,55.68c0.12,0.27,0.09,0.59-0.07,0.84c-0.16,0.25-0.44,0.4-0.74,0.4H228.05z M217.83,44.98
					l-7.11-17.99l-6.95,17.99H217.83z"/>
				<g>
					<g>
						<path class="st4" d="M193.09,68.21H180.7l23.38-55.68h12.39l23.76,55.68h-13l-5.1-13.34h-24.25L193.09,68.21z M201.66,45.05
							h16.66l-8.42-21.31L201.66,45.05z"/>
					</g>
				</g>
				<path class="st3" d="M293.7,69.91c-0.4,0-0.74-0.26-0.85-0.64L282.01,31l-9.66,38.24c-0.1,0.39-0.45,0.67-0.86,0.67h-14.24
					c-0.38,0-0.72-0.24-0.84-0.61l-18.44-55.68c-0.09-0.27-0.04-0.57,0.12-0.8c0.17-0.23,0.43-0.37,0.72-0.37h12.39
					c0.39,0,0.74,0.26,0.85,0.63l11.93,39.78l10.13-39.75c0.1-0.39,0.45-0.67,0.86-0.67h13.79c0.39,0,0.74,0.26,0.85,0.64
					l11.67,39.87l11.11-39.85c0.11-0.38,0.46-0.65,0.85-0.65h11.9c0.28,0,0.54,0.13,0.71,0.36c0.17,0.22,0.22,0.52,0.14,0.79
					l-17.04,55.68c-0.12,0.37-0.46,0.63-0.85,0.63H293.7z"/>
				<g>
					<g>
						<path class="st4" d="M270.68,68.21h-14.24L238,12.53h12.39l12.84,42.84l10.92-42.84h13.79l12.54,42.84l11.94-42.84h11.9
							l-17.04,55.68h-14.39l-11.75-41.44L270.68,68.21z"/>
					</g>
				</g>
				<path class="st3" d="M369.6,69.91c-0.37,0-0.7-0.23-0.83-0.57l-4.88-12.77h-23.02l-4.59,12.75c-0.13,0.35-0.46,0.59-0.83,0.59
					h-12.39c-0.3,0-0.57-0.15-0.74-0.39c-0.16-0.25-0.19-0.56-0.08-0.83L345.63,13c0.14-0.33,0.46-0.54,0.82-0.54h12.39
					c0.35,0,0.67,0.21,0.81,0.54l23.76,55.68c0.12,0.27,0.09,0.59-0.07,0.84c-0.16,0.25-0.44,0.4-0.74,0.4H369.6z M359.38,44.98
					l-7.11-17.99l-6.95,17.99H359.38z"/>
				<g>
					<g>
						<path class="st4" d="M334.64,68.21h-12.39l23.38-55.68h12.39l23.76,55.68h-13l-5.1-13.34h-24.25L334.64,68.21z M343.21,45.05
							h16.66l-8.42-21.31L343.21,45.05z"/>
					</g>
				</g>
				<path class="st3" d="M398.8,69.91c-0.49,0-0.88-0.4-0.88-0.88V44.81l-20.85-30.98c-0.18-0.27-0.2-0.62-0.05-0.91
					c0.15-0.29,0.45-0.47,0.78-0.47h12.99c0.3,0,0.58,0.15,0.74,0.4l13.05,20.23l13.12-20.23c0.16-0.25,0.44-0.4,0.74-0.4h13.49
					c0.33,0,0.63,0.18,0.78,0.47c0.15,0.29,0.13,0.64-0.05,0.91l-21.15,30.98v24.21c0,0.49-0.4,0.88-0.88,0.88H398.8z"/>
				<g>
					<g>
						<path class="st4" d="M397.99,68.21V43.73l-21-31.2h13l13.79,21.38l13.86-21.38h13.49l-21.31,31.2v24.48H397.99z"/>
					</g>
				</g>
				<path class="st3" d="M455.16,69.91c-0.49,0-0.88-0.4-0.88-0.88V43.45c0-8.93,1.1-15.78,3.26-20.36
					c2.06-4.36,5.36-7.35,9.81-8.88c3.35-1.16,8.48-1.75,15.25-1.75h17.83c0.49,0,0.88,0.4,0.88,0.88v9.67
					c0,0.49-0.4,0.88-0.88,0.88h-18.93c-4.65,0-8.05,0.88-10.12,2.63c-2.15,1.81-3.31,4.91-3.45,9.24h32.5
					c0.49,0,0.88,0.4,0.88,0.88v9.52c0,0.49-0.4,0.88-0.88,0.88h-32.51v21.97c0,0.49-0.4,0.88-0.88,0.88H455.16z"/>
				<g>
					<g>
						<path class="st4" d="M466.22,68.21h-11.86V42.64c0-8.84,1.06-15.5,3.17-19.98c1.96-4.16,5.06-6.96,9.29-8.42
							c3.27-1.13,8.26-1.7,14.96-1.7h17.83v9.67h-18.93c-4.89,0-8.45,0.94-10.69,2.83c-2.52,2.11-3.78,5.72-3.78,10.8h33.39v9.52
							h-33.39V68.21z"/>
					</g>
				</g>
				<path class="st3" d="M545.87,69.91c-0.32,0-0.61-0.17-0.77-0.45l-12.06-21.31h-12.31v20.88c0,0.49-0.4,0.88-0.88,0.88h-11.67
					c-0.49,0-0.88-0.4-0.88-0.88V13.34c0-0.49,0.4-0.88,0.88-0.88h28.71c6.83,0,11.95,1.36,15.22,4.05c3.45,2.86,5.2,7.45,5.2,13.64
					c0,4.17-0.97,7.7-2.87,10.51c-1.83,2.72-4.45,4.6-7.8,5.61l13.12,22.3c0.16,0.27,0.16,0.61,0,0.89
					c-0.16,0.28-0.45,0.45-0.77,0.45H545.87z M534.19,36.56c3.76,0,6.35-0.46,7.69-1.36c1.23-0.83,1.86-2.48,1.86-4.89
					c0-2.54-0.54-3.64-1-4.1c-0.88-0.91-3.08-2-8.54-2h-13.47v12.36H534.19z"/>
				<g>
					<g>
						<path class="st4" d="M519.03,68.21h-11.67V12.53h28.71c6.65,0,11.53,1.29,14.66,3.85c3.25,2.7,4.87,7.01,4.87,12.96
							c0,4-0.91,7.34-2.72,10.01c-1.91,2.85-4.72,4.7-8.42,5.55l13.71,23.31h-13.11l-12.32-21.76h-13.71V68.21z M533.38,22.5h-14.35
							v14.13h14.35c3.95,0,6.68-0.5,8.18-1.51c1.5-1.01,2.25-2.88,2.25-5.63c0-2.29-0.42-3.87-1.25-4.72
							C541.1,23.26,538.04,22.5,533.38,22.5z"/>
					</g>
				</g>
				<path class="st3" d="M590.48,71.08c-9.7,0-17.01-2.53-21.71-7.51c-4.68-4.97-7.06-12.54-7.06-22.5c0-7.3,1.28-13.3,3.81-17.85
					c2.33-4.19,5.8-7.3,10.32-9.26c3.97-1.73,8.85-2.6,14.48-2.6c5.62,0,10.4,0.77,14.19,2.29c4.63,1.86,8.2,4.92,10.64,9.11
					c2.71,4.65,4.09,10.86,4.09,18.46c0,9.39-2.1,16.63-6.25,21.5C608.28,68.27,600.7,71.08,590.48,71.08z M590.41,22.8
					c-4.76,0-8.25,1.55-10.66,4.75c-2.34,3.1-3.52,7.65-3.52,13.54c0,5.76,1.02,10.25,3.03,13.33c2.36,3.61,6.01,5.37,11.16,5.37
					c5.01,0,8.6-1.62,10.99-4.95c2.2-3.08,3.31-7.63,3.31-13.52c0-3.31-0.3-6.13-0.88-8.38c-0.78-3.06-2.14-5.45-4.03-7.1
					C597.5,23.82,594.34,22.8,590.41,22.8z"/>
				<g>
					<g>
						<path class="st4" d="M589.52,11.43c5.54,0,10.16,0.74,13.86,2.23c4.46,1.79,7.86,4.7,10.2,8.73
							c2.64,4.53,3.97,10.54,3.97,18.02c0,9.22-2.01,16.19-6.04,20.93c-4.56,5.36-11.84,8.05-21.83,8.05
							c-9.5,0-16.52-2.41-21.06-7.23c-4.55-4.82-6.82-12.12-6.82-21.89c0-7.18,1.23-12.98,3.7-17.42c2.24-4.03,5.54-6.99,9.9-8.88
							C579.27,12.28,583.98,11.43,589.52,11.43z M574.52,40.27c0,5.96,1.06,10.57,3.17,13.81c2.52,3.85,6.48,5.77,11.9,5.77
							c5.26,0,9.17-1.77,11.71-5.32c2.32-3.25,3.48-7.93,3.48-14.04c0-3.4-0.3-6.26-0.91-8.6c-0.83-3.25-2.27-5.76-4.31-7.55
							c-2.47-2.16-5.79-3.25-9.97-3.25c-5.01,0-8.8,1.7-11.37,5.1C575.75,29.47,574.52,34.16,574.52,40.27z"/>
					</g>
				</g>
				<path class="st3" d="M677.25,69.91c-0.24,0-0.47-0.1-0.63-0.27c-0.17-0.17-0.26-0.4-0.25-0.64l0.78-37.34L664.84,69.3
					c-0.12,0.36-0.46,0.61-0.84,0.61h-12.47c-0.38,0-0.72-0.24-0.84-0.6l-12.73-38.03L639,69c0.01,0.24-0.08,0.47-0.25,0.64
					c-0.17,0.17-0.39,0.27-0.63,0.27h-11.97c-0.49,0-0.88-0.4-0.88-0.88V13.34c0-0.49,0.4-0.88,0.88-0.88h17.26
					c0.38,0,0.72,0.24,0.84,0.61l13.25,40.15l13.32-40.15c0.12-0.36,0.46-0.61,0.84-0.61h17.11c0.49,0,0.88,0.4,0.88,0.88v55.68
					c0,0.49-0.4,0.88-0.88,0.88H677.25z"/>
				<g>
					<g>
						<path class="st4" d="M637.31,68.21h-11.97V12.53h17.26l14.09,42.69l14.17-42.69h17.11v55.68h-11.52l0.91-43.29l-14.17,43.29
							h-12.47L636.1,24.54L637.31,68.21z"/>
					</g>
				</g>
			</g>
		</g>
		<g>
			<g>
				<path class="st3" d="M237.11,148.49c-0.4,0-0.74-0.26-0.85-0.64l-11-38.8l-9.79,38.77c-0.1,0.39-0.45,0.67-0.86,0.67h-14.43
					c-0.38,0-0.72-0.24-0.84-0.61l-18.67-56.4c-0.09-0.27-0.04-0.57,0.12-0.8c0.17-0.23,0.43-0.37,0.72-0.37h12.55
					c0.39,0,0.74,0.26,0.85,0.63L207,131.28l10.27-40.3c0.1-0.39,0.45-0.67,0.86-0.67h13.97c0.39,0,0.74,0.26,0.85,0.64l11.83,40.42
					l11.26-40.41c0.11-0.38,0.46-0.65,0.85-0.65h12.06c0.28,0,0.54,0.13,0.71,0.36c0.17,0.22,0.22,0.52,0.14,0.79l-17.26,56.4
					c-0.12,0.37-0.46,0.63-0.85,0.63H237.11z"/>
				<g>
					<g>
						<path class="st4" d="M213.79,146.79h-14.43l-18.67-56.4h12.55l13.01,43.39l11.06-43.39h13.97l12.7,43.39l12.09-43.39h12.05
							l-17.26,56.4h-14.58l-11.9-41.98L213.79,146.79z"/>
					</g>
				</g>
				<path class="st3" d="M308.38,149.68c-9.83,0-17.22-2.56-21.98-7.61c-4.74-5.03-7.15-12.7-7.15-22.78
					c0-7.39,1.3-13.47,3.86-18.07c2.35-4.24,5.87-7.39,10.45-9.37c4.02-1.75,8.96-2.64,14.66-2.64c5.7,0,10.53,0.78,14.37,2.32
					c4.68,1.88,8.31,4.98,10.77,9.21c2.75,4.71,4.14,11,4.14,18.7c0,9.51-2.13,16.84-6.33,21.77
					C326.4,146.83,318.73,149.68,308.38,149.68z M308.31,100.77c-4.83,0-8.36,1.57-10.81,4.81c-2.37,3.14-3.57,7.75-3.57,13.72
					c0,5.84,1.03,10.38,3.07,13.51c2.4,3.66,6.1,5.45,11.31,5.45c5.07,0,8.72-1.64,11.14-5.02c2.23-3.12,3.36-7.73,3.36-13.71
					c0-3.35-0.3-6.21-0.89-8.49c-0.79-3.1-2.17-5.52-4.09-7.2C315.5,101.81,312.3,100.77,308.31,100.77z"/>
				<g>
					<g>
						<path class="st4" d="M307.42,89.28c5.61,0,10.29,0.75,14.04,2.26c4.51,1.81,7.96,4.76,10.33,8.84
							c2.68,4.59,4.02,10.67,4.02,18.25c0,9.34-2.04,16.4-6.12,21.2c-4.62,5.43-11.99,8.15-22.12,8.15
							c-9.62,0-16.73-2.44-21.33-7.33c-4.6-4.88-6.91-12.28-6.91-22.17c0-7.27,1.25-13.15,3.75-17.64
							c2.27-4.08,5.61-7.08,10.02-8.99C297.03,90.14,301.81,89.28,307.42,89.28z M292.23,118.5c0,6.04,1.07,10.7,3.21,13.99
							c2.55,3.9,6.57,5.85,12.05,5.85c5.33,0,9.28-1.8,11.86-5.39c2.35-3.29,3.52-8.03,3.52-14.22c0-3.44-0.31-6.35-0.92-8.72
							c-0.84-3.29-2.3-5.84-4.36-7.64c-2.5-2.19-5.87-3.29-10.1-3.29c-5.08,0-8.92,1.72-11.52,5.16
							C293.48,107.55,292.23,112.3,292.23,118.5z"/>
					</g>
				</g>
				<path class="st3" d="M392.1,148.49c-0.32,0-0.61-0.17-0.77-0.45l-12.22-21.59h-12.49v21.15c0,0.49-0.4,0.88-0.88,0.88h-11.82
					c-0.49,0-0.88-0.4-0.88-0.88V91.2c0-0.49,0.4-0.88,0.88-0.88h29.08c6.91,0,12.1,1.38,15.41,4.1c3.49,2.9,5.26,7.54,5.26,13.81
					c0,4.22-0.98,7.8-2.91,10.64c-1.85,2.75-4.51,4.66-7.91,5.68l13.3,22.6c0.16,0.27,0.16,0.61,0,0.89
					c-0.16,0.28-0.45,0.45-0.77,0.45H392.1z M380.27,114.73c3.81,0,6.43-0.46,7.79-1.38c1.25-0.84,1.89-2.51,1.89-4.97
					c0-2.58-0.55-3.69-1.01-4.17c-0.89-0.93-3.12-2.03-8.66-2.03h-13.66v12.54H380.27z"/>
				<g>
					<g>
						<path class="st4" d="M364.92,146.79H353.1v-56.4h29.08c6.73,0,11.68,1.3,14.85,3.9c3.29,2.73,4.94,7.1,4.94,13.12
							c0,4.06-0.92,7.44-2.75,10.14c-1.94,2.88-4.78,4.76-8.53,5.63l13.89,23.61h-13.28l-12.47-22.04h-13.89V146.79z M379.46,100.49
							h-14.54v14.31h14.54c4,0,6.77-0.51,8.28-1.53c1.52-1.02,2.28-2.92,2.28-5.7c0-2.32-0.42-3.92-1.26-4.78
							C387.28,101.26,384.18,100.49,379.46,100.49z"/>
					</g>
				</g>
				<path class="st3" d="M455.41,148.49c-0.28,0-0.54-0.13-0.7-0.35l-19.84-25.93v25.39c0,0.49-0.4,0.88-0.88,0.88h-11.82
					c-0.49,0-0.88-0.4-0.88-0.88V91.2c0-0.49,0.4-0.88,0.88-0.88h11.82c0.49,0,0.88,0.4,0.88,0.88v24.65l20.62-25.21
					c0.17-0.21,0.42-0.32,0.69-0.32h14.2c0.34,0,0.65,0.2,0.8,0.51c0.15,0.31,0.1,0.68-0.12,0.94l-22.2,27.07l22.4,28.22
					c0.21,0.27,0.25,0.63,0.1,0.94c-0.15,0.31-0.46,0.5-0.8,0.5H455.41z"/>
				<g>
					<g>
						<path class="st4" d="M433.17,146.79h-11.82v-56.4h11.82v27.13l22.19-27.13h14.2l-22.65,27.63l22.84,28.77H454.6l-21.43-28.01
							V146.79z"/>
					</g>
				</g>
				<path class="st3" d="M486.01,155.83c-0.12,0-0.24-0.02-0.36-0.08c-0.32-0.14-0.52-0.46-0.52-0.81v-6.45h-3.59
					c-0.49,0-0.88-0.4-0.88-0.88v-9.8c0-0.49,0.4-0.88,0.88-0.88h9.34c0.38,0,0.72,0.24,0.84,0.61c0.08,0.25,0.12,0.55,0.12,0.93
					v5.3c0,1.33-0.08,2.5-0.23,3.5c-0.16,1.01-0.45,1.98-0.86,2.87c-0.62,1.71-2.02,3.58-4.13,5.48
					C486.44,155.75,486.23,155.83,486.01,155.83z"/>
				<g>
					<g>
						<path class="st4" d="M485.2,154.13v-7.34h-4.48V137h9.34c0.05,0.15,0.08,0.37,0.08,0.65s0,0.56,0,0.84v1.87
							c0,0.38,0,0.8,0,1.24c0,0.45,0,0.9,0,1.36c0,1.3-0.08,2.42-0.23,3.36c-0.15,0.94-0.42,1.82-0.79,2.63
							C488.52,150.59,487.21,152.32,485.2,154.13z"/>
					</g>
				</g>
				<path class="st3" d="M562.33,148.49c-5.4,0-9.65-0.49-12.63-1.46c-3.9-1.26-6.85-3.6-8.79-6.94c-2.09-3.59-3.14-8.75-3.14-15.33
					V91.2c0-0.49,0.4-0.88,0.88-0.88h11.75c0.49,0,0.88,0.4,0.88,0.88v30.99c0,4.38,0.16,7.39,0.48,8.93
					c0.46,2.24,1.46,3.8,3.05,4.76c1.65,0.99,4.5,1.5,8.48,1.5h14.12c0.49,0,0.88,0.4,0.88,0.88v9.34c0,0.49-0.4,0.88-0.88,0.88
					H562.33z"/>
				<g>
					<g>
						<path class="st4" d="M576.6,137.46v9.34h-15.07c-5.33,0-9.45-0.47-12.36-1.42c-3.7-1.2-6.47-3.38-8.3-6.54
							c-2.02-3.47-3.02-8.43-3.02-14.88V90.39h11.75v30.99c0,4.46,0.17,7.5,0.5,9.11c0.51,2.47,1.66,4.25,3.46,5.34
							c1.8,1.08,4.78,1.63,8.93,1.63H576.6z"/>
					</g>
				</g>
				<path class="st3" d="M615.43,148.49c-5.4,0-9.65-0.49-12.63-1.46c-3.9-1.26-6.85-3.6-8.79-6.94c-2.09-3.59-3.14-8.74-3.14-15.33
					V91.2c0-0.49,0.4-0.88,0.88-0.88h11.75c0.49,0,0.88,0.4,0.88,0.88v30.99c0,4.38,0.16,7.39,0.48,8.93
					c0.46,2.24,1.46,3.8,3.05,4.76c1.65,0.99,4.5,1.5,8.48,1.5h14.12c0.49,0,0.88,0.4,0.88,0.88v9.34c0,0.49-0.4,0.88-0.88,0.88
					H615.43z"/>
				<g>
					<g>
						<path class="st4" d="M629.7,137.46v9.34h-15.07c-5.33,0-9.45-0.47-12.36-1.42c-3.7-1.2-6.47-3.38-8.3-6.54
							c-2.02-3.47-3.02-8.43-3.02-14.88V90.39h11.75v30.99c0,4.46,0.17,7.5,0.5,9.11c0.51,2.47,1.66,4.25,3.46,5.34
							c1.8,1.08,4.78,1.63,8.93,1.63H629.7z"/>
					</g>
				</g>
				<path class="st3" d="M668.84,148.49c-9.04,0-15.96-2.5-20.58-7.43c-4.42-4.74-6.67-11.67-6.67-20.58
					c0-9.47,1.96-16.75,5.82-21.63c4.47-5.66,11.78-8.52,21.74-8.52h19.63c0.49,0,0.88,0.4,0.88,0.88v9.64
					c0,0.49-0.4,0.88-0.88,0.88H669.3c-4.27,0-7.32,1.24-9.33,3.8c-2.41,3.06-3.64,8.38-3.64,15.79c0,4.69,0.58,8.28,1.71,10.68
					c0.97,2.04,2.41,3.38,4.4,4.1c1.51,0.55,3.81,0.83,6.86,0.83h19.48c0.49,0,0.88,0.4,0.88,0.88v9.8c0,0.49-0.4,0.88-0.88,0.88
					H668.84z"/>
				<g>
					<g>
						<path class="st4" d="M687.96,90.39v9.64h-19.48c-4.51,0-7.86,1.38-10.02,4.13c-2.55,3.24-3.83,8.69-3.83,16.34
							c0,4.85,0.6,8.53,1.8,11.06c1.07,2.25,2.7,3.76,4.9,4.55c1.61,0.59,3.99,0.88,7.16,0.88h19.48v9.8h-19.94
							c-8.83,0-15.47-2.39-19.93-7.16c-4.29-4.59-6.43-11.25-6.43-19.97c0-9.31,1.87-16.34,5.62-21.08
							c4.31-5.46,11.33-8.19,21.05-8.19H687.96z"/>
					</g>
				</g>
			</g>
		</g>
		<g>
			<g>
				<rect x="180.7" y="167.4" class="st5" width="507.27" height="42.13"/>
				<g>
					<g>
						<path class="st4" d="M203.71,198.49c-5.51,0-9.84-4.13-9.84-10.01c0-5.88,4.33-10.01,9.84-10.01c5.54,0,9.84,4.13,9.84,10.01
							C213.55,194.35,209.25,198.49,203.71,198.49z M203.71,196.26c4.13,0,7.23-3.01,7.23-7.79c0-4.81-3.09-7.79-7.23-7.79
							c-4.13,0-7.23,2.98-7.23,7.79C196.48,193.26,199.58,196.26,203.71,196.26z"/>
						<path class="st4" d="M224.37,190.11h-3.77v8.18h-2.56v-19.6h6.33c4.61,0,6.78,2.53,6.78,5.74
							C231.15,187.41,229.24,190.11,224.37,190.11z M224.37,188c2.92,0,4.16-1.38,4.16-3.57c0-2.28-1.24-3.63-4.16-3.63h-3.77v7.2
							H224.37z"/>
						<path class="st4" d="M234.23,178.69h13.27v2.08h-5.34v17.52h-2.56v-17.52h-5.37V178.69z"/>
						<path class="st4" d="M251.77,178.69h2.56v19.6h-2.56V178.69z"/>
						<path class="st4" d="M259.81,178.83h2.76l7.2,16.08l7.2-16.08h2.73v19.46h-2.56v-14.51l-6.47,14.51h-1.8l-6.5-14.54v14.54
							h-2.56V178.83z"/>
						<path class="st4" d="M285.14,178.69h2.56v19.6h-2.56V178.69z"/>
						<path class="st4" d="M304.85,180.72l-9.5,15.35h9.56v2.22h-12.6v-2.03l9.5-15.35h-9.39v-2.22h12.43V180.72z"/>
						<path class="st4" d="M309.51,178.69h2.56v19.6h-2.56V178.69z"/>
						<path class="st4" d="M332.96,178.66v19.63h-2.56l-10.29-15.61v15.61h-2.56v-19.63h2.56l10.29,15.58v-15.58H332.96z"/>
						<path class="st4" d="M356.35,184.37h-3.07c-1.07-2.28-3.21-3.6-5.96-3.6c-4.13,0-7.23,2.98-7.23,7.7
							c0,4.7,3.09,7.68,7.23,7.68c3.85,0,6.5-2.47,6.89-6.36h-7.82v-2.08h10.55v1.97c-0.45,4.86-4.3,8.77-9.62,8.77
							c-5.51,0-9.84-4.11-9.84-9.98c0-5.88,4.33-10.01,9.84-10.01C351.45,178.47,354.88,180.6,356.35,184.37z"/>
						<path class="st4" d="M382.6,189.4h-9.98v8.89h-2.56v-19.6h2.56v8.6h9.98v-8.6h2.56v19.6h-2.56V189.4z"/>
						<path class="st4" d="M390.55,178.69h2.56v12.4c0,3.6,1.94,5.14,4.84,5.14c2.9,0,4.81-1.55,4.81-5.14v-12.4h2.56v12.37
							c0,5.09-3.35,7.42-7.4,7.42s-7.37-2.33-7.37-7.42V178.69z"/>
						<path class="st4" d="M410.7,178.83h2.76l7.2,16.08l7.2-16.08h2.73v19.46h-2.56v-14.51l-6.47,14.51h-1.8l-6.49-14.54v14.54
							h-2.56V178.83z"/>
						<path class="st4" d="M447.61,193.93h-8.55l-1.57,4.36h-2.7l7.09-19.49h2.95l7.06,19.49h-2.7L447.61,193.93z M443.34,181.95
							l-3.54,9.9h7.09L443.34,181.95z"/>
						<path class="st4" d="M471.51,178.66v19.63h-2.56l-10.29-15.61v15.61h-2.56v-19.63h2.56l10.29,15.58v-15.58H471.51z"/>
						<path class="st4" d="M494.44,178.44c4.25,0,7.62,2.14,9.08,5.93h-3.07c-1.07-2.36-3.15-3.68-6.02-3.68
							c-4.1,0-7.17,2.98-7.17,7.79c0,4.78,3.07,7.76,7.17,7.76c2.87,0,4.95-1.32,6.02-3.65h3.07c-1.46,3.77-4.84,5.88-9.08,5.88
							c-5.48,0-9.79-4.11-9.79-9.98C484.66,182.6,488.96,178.44,494.44,178.44z"/>
						<path class="st4" d="M517.32,198.49c-5.51,0-9.84-4.13-9.84-10.01c0-5.88,4.33-10.01,9.84-10.01c5.54,0,9.84,4.13,9.84,10.01
							C527.16,194.35,522.86,198.49,517.32,198.49z M517.32,196.26c4.13,0,7.23-3.01,7.23-7.79c0-4.81-3.09-7.79-7.23-7.79
							c-4.13,0-7.23,2.98-7.23,7.79C510.1,193.26,513.19,196.26,517.32,196.26z"/>
						<path class="st4" d="M547.07,178.66v19.63h-2.56l-10.29-15.61v15.61h-2.56v-19.63h2.56l10.29,15.58v-15.58H547.07z"/>
						<path class="st4" d="M567.95,178.66v19.63h-2.56l-10.29-15.61v15.61h-2.56v-19.63h2.56l10.29,15.58v-15.58H567.95z"/>
						<path class="st4" d="M583.97,180.77h-7.99v6.55h7.14v2.11h-7.14v6.75h7.99v2.11h-10.55v-19.63h10.55V180.77z"/>
						<path class="st4" d="M597.8,178.44c4.25,0,7.62,2.14,9.08,5.93h-3.07c-1.07-2.36-3.15-3.68-6.02-3.68
							c-4.1,0-7.17,2.98-7.17,7.79c0,4.78,3.07,7.76,7.17,7.76c2.87,0,4.95-1.32,6.02-3.65h3.07c-1.46,3.77-4.84,5.88-9.08,5.88
							c-5.48,0-9.79-4.11-9.79-9.98C588.01,182.6,592.32,178.44,597.8,178.44z"/>
						<path class="st4" d="M610.58,178.69h13.27v2.08h-5.34v17.52h-2.56v-17.52h-5.37V178.69z"/>
						<path class="st4" d="M628.12,178.69h2.56v19.6h-2.56V178.69z"/>
						<path class="st4" d="M645.05,198.49c-5.51,0-9.84-4.13-9.84-10.01c0-5.88,4.33-10.01,9.84-10.01c5.54,0,9.84,4.13,9.84,10.01
							C654.89,194.35,650.59,198.49,645.05,198.49z M645.05,196.26c4.13,0,7.23-3.01,7.23-7.79c0-4.81-3.09-7.79-7.23-7.79
							c-4.13,0-7.23,2.98-7.23,7.79C637.82,193.26,640.91,196.26,645.05,196.26z"/>
						<path class="st4" d="M674.79,178.66v19.63h-2.56l-10.29-15.61v15.61h-2.56v-19.63h2.56l10.29,15.58v-15.58H674.79z"/>
					</g>
				</g>
			</g>
		</g>
	</g>
</g>
</svg>
