<?xml version="1.0" encoding="utf-8"?>
<!-- Generator: Adobe Illustrator 28.2.0, SVG Export Plug-In . SVG Version: 6.00 Build 0)  -->
<svg version="1.1" id="Layer_1" xmlns="http://www.w3.org/2000/svg" xmlns:xlink="http://www.w3.org/1999/xlink" x="0px" y="0px"
	 viewBox="0 0 579.3 234.3" style="enable-background:new 0 0 579.3 234.3;" xml:space="preserve">
<style type="text/css">
	.st0{fill:#47BBFF;}
	.st1{fill:#2D348F;}
	.st2{fill:#202A89;}
</style>
<g>
	<g>
		<g>
			<g>
				<g>
					<g>
						<path class="st0" d="M150.3,51.5h13.5L145.3,106h-11.7l-5-15.2l-6.1-18.3l-5.9,18.3l-5.1,15.2H100L81.4,51.5H95l6.7,21.7
							l4.3,15.5l12-37.2h8.9L139.2,89l4.6-15.7L150.3,51.5z"/>
					</g>
				</g>
				<g>
					<g>
						<path class="st0" d="M195.9,52.6l-5.7,14.8l7.1,17.8h-13.9l-4.2,11h22.4l3.9,9.8H219L195.9,52.6z"/>
					</g>
				</g>
				<g>
					<g>
						<path class="st0" d="M266.7,51.5l-21.6,33.2V106h-12.3V84.7L212,51.5h14.5l12.6,21.2L252,51.5H266.7z"/>
					</g>
				</g>
			</g>
		</g>
		<g>
			<path class="st1" d="M337.6,54.9h-34.7v22.8h32.8v3.3h-32.8V106h-3.7V51.5h38.4V54.9z"/>
			<path class="st1" d="M371.6,85.1h-17.1v21h-3.7V51.5h25.5c3.8,0,7.2,0.7,10,2.1c2.9,1.4,5.1,3.4,6.7,5.9c1.6,2.5,2.4,5.5,2.4,8.8
				c0,3.3-0.8,6.2-2.4,8.8c-1.6,2.5-3.8,4.5-6.6,5.9c-2.9,1.4-6.2,2.1-10,2.1l20.8,21h-4.8L371.6,85.1z M387.5,58.5
				c-2.8-2.4-6.5-3.7-11.2-3.7h-21.8v27h21.8c4.7,0,8.4-1.2,11.2-3.7c2.8-2.4,4.2-5.7,4.2-9.8C391.7,64.2,390.3,61,387.5,58.5z"/>
			<path class="st1" d="M419.8,103.4c-4.5-2.4-8-5.7-10.5-10c-2.5-4.3-3.8-9.2-3.8-14.6c0-5.5,1.3-10.3,3.8-14.6
				c2.5-4.3,6-7.6,10.5-10c4.5-2.4,9.6-3.6,15.3-3.6c5.7,0,10.8,1.2,15.3,3.6c4.5,2.4,8,5.7,10.5,10c2.5,4.3,3.8,9.2,3.8,14.6
				c0,5.5-1.3,10.3-3.8,14.6c-2.5,4.3-6,7.6-10.5,10c-4.5,2.4-9.6,3.6-15.3,3.6C429.5,107,424.4,105.8,419.8,103.4z M448.6,100.5
				c3.9-2.1,7-5.1,9.2-8.8c2.2-3.8,3.3-8.1,3.3-12.9c0-4.8-1.1-9.1-3.3-12.9c-2.2-3.8-5.3-6.7-9.2-8.8c-3.9-2.1-8.4-3.2-13.4-3.2
				c-5,0-9.5,1.1-13.4,3.2c-3.9,2.1-7,5.1-9.2,8.8c-2.2,3.8-3.3,8.1-3.3,12.9c0,4.8,1.1,9.1,3.3,12.9c2.2,3.8,5.3,6.7,9.2,8.8
				c3.9,2.1,8.4,3.2,13.4,3.2C440.2,103.7,444.6,102.7,448.6,100.5z"/>
			<path class="st1" d="M533.1,51.5h4V106h-3.6V56.7L508,89.4h-0.9l-25.5-32.6V106h-3.7V51.5h4l25.5,32.8L533.1,51.5z"/>
		</g>
		<g>
			<g>
				<g>
					<g>
						<path class="st0" d="M408.5,119.5h3.8v51.2H447v3.4h-38.4V119.5z"/>
					</g>
				</g>
				<g>
					<g>
						<path class="st0" d="M457.2,119.5h3.8v51.2h34.6v3.4h-38.4V119.5z"/>
					</g>
				</g>
				<g>
					<g>
						<path class="st0" d="M515.2,171.4c-4.7-2.4-8.4-5.7-11-10c-2.6-4.3-3.9-9.2-3.9-14.6c0-5.5,1.3-10.3,3.9-14.6
							c2.6-4.3,6.3-7.6,11-10c4.7-2.4,10-3.6,16-3.6c4.1,0,8.1,0.7,11.7,2.1c3.7,1.4,6.9,3.4,9.8,6l-2.6,2.3c-2.5-2.3-5.4-4-8.6-5.3
							c-3.2-1.2-6.6-1.8-10.2-1.8c-5.3,0-10,1.1-14.2,3.2c-4.1,2.1-7.4,5-9.6,8.8c-2.3,3.8-3.4,8.1-3.4,13c0,4.9,1.1,9.2,3.4,13
							c2.3,3.8,5.5,6.7,9.6,8.8c4.1,2.1,8.9,3.2,14.2,3.2c3.6,0,7.1-0.6,10.4-1.8c3.3-1.2,6.3-3,8.9-5.3l2.5,2.3
							c-2.8,2.6-6.1,4.7-9.8,6c-3.7,1.4-7.7,2.1-11.9,2.1C525.3,175,519.9,173.8,515.2,171.4z"/>
					</g>
				</g>
			</g>
		</g>
		<g>
			<path class="st2" d="M186,170.5c-4.3-2.4-7.6-5.7-10-10c-2.3-4.3-3.5-9.3-3.5-15c0-5.7,1.2-10.7,3.5-15c2.3-4.3,5.7-7.6,10-10
				c4.3-2.4,9.3-3.5,15-3.5c5.7,0,10.7,1.2,15,3.5c4.3,2.4,7.6,5.7,10,10c2.3,4.3,3.5,9.3,3.5,15c0,5.7-1.2,10.7-3.5,15
				c-2.3,4.3-5.7,7.6-10,10c-4.3,2.4-9.3,3.5-15,3.5C195.3,174.1,190.3,172.9,186,170.5z M209.5,160.5c2.4-1.4,4.3-3.4,5.7-6
				c1.3-2.6,2-5.6,2-9c0-3.4-0.7-6.4-2-9c-1.3-2.6-3.2-4.6-5.7-6c-2.4-1.4-5.3-2.1-8.4-2.1c-3.2,0-6,0.7-8.4,2.1
				c-2.4,1.4-4.3,3.4-5.6,6c-1.3,2.6-2,5.6-2,9c0,3.4,0.7,6.4,2,9c1.3,2.6,3.2,4.6,5.6,6c2.4,1.4,5.2,2.1,8.4,2.1
				C204.2,162.7,207,162,209.5,160.5z"/>
			<path class="st2" d="M262.2,154.7H255v18h-12.4v-54.5h25.8c3.8,0,7.2,0.8,10.1,2.3c2.9,1.5,5.1,3.7,6.7,6.5
				c1.6,2.8,2.3,6,2.3,9.7c0,4.2-1,7.7-3.1,10.7c-2.1,3-5.1,5.1-8.9,6.3l15,19.1h-14.8L262.2,154.7z M273,131.1
				c-1.4-1.3-3.5-2-6.1-2h-12v15.3h12c2.7,0,4.7-0.7,6.1-2c1.4-1.3,2.1-3.2,2.1-5.6S274.5,132.5,273,131.1z"/>
			<path class="st2" d="M349,172.7h-16.1l-18.6-21.7v21.7h-12.3v-54.5h12.3v21.3l17.4-21.3h15.3l-22.3,26.7L349,172.7z"/>
			<path class="st2" d="M367.5,162.2c1.3,1.3,1.9,2.9,1.9,5c0,1.7-0.4,3.6-1.1,5.6c-0.7,2-2,5.2-4,9.5h-6.4l2.1-9.3
				c-1.3-0.4-2.3-1.1-3.1-2.1c-0.8-1.1-1.1-2.3-1.1-3.9c0-2,0.6-3.6,1.9-4.8c1.3-1.2,2.9-1.8,4.9-1.8
				C364.6,160.3,366.2,160.9,367.5,162.2z"/>
		</g>
		<path d="M202,12.8l-8.5,5.4l-0.3,0.2l-15.4,9.9h11.6l-8.2,21.7l-0.1,0.2l-1.9,5l-37.9,100.5L129,118.2h-8.9l-12,37.2L63.3,51.5H50
			L26.3,106h13.2l3.9-9.8h26.1l32.6,76.5h11.5l5.1-15.2l5.9-18.3l6,18.3l5,15.2h11.7l45.2-118.5l0.2-0.5l11.9-31.2v0L202,12.8z
			 M47.9,85.2l8.7-21.5l8.5,21.5H47.9z"/>
		<path class="st2" d="M202,12.8l-8.5,5.4l-0.3,0.2l-15.4,9.9h11.6l-8.3,21.9l-1.9,5l-37.9,100.5L129,118.2h-8.9l-12,37.2L63.3,51.5
			H50L26.3,106h13.2l3.9-9.8h26.1l32.6,76.5h11.5l5.1-15.2l5.9-18.3l6,18.3l5,15.2h11.7l45.2-118.5l12.1-31.8L202,12.8z M47.9,85.2
			l8.7-21.5l8.5,21.5H47.9z"/>
	</g>
	<polygon class="st2" points="209.7,40.5 201,32.7 192.8,53.7 192.6,54.3 188.9,63.9 179.2,55.2 179.2,55.2 181.1,50.2 181.2,49.9 
		193.4,18.2 202,12.8 204.8,22.5 204.8,22.5 204.8,22.8 	"/>
	<g>
		<g>
			<path class="st0" d="M126,211.8l-2.5-5.2h-13.4l-2.4,5.2h-1.9l10.1-21.1h1.9l10.1,21.1H126z M122.8,205.1l-6-12.9l-6,12.9H122.8z
				"/>
			<path class="st0" d="M151.4,211.8v-9.6h-14.3v9.6h-1.7v-21.1h1.7v10.1h14.3v-10.1h1.7v21.1H151.4z"/>
			<path class="st0" d="M171.1,196.9c0,5,0,9.9,0,14.9h-1.6v-3.2c-1.5,2.3-3.9,3.4-6.5,3.4c-4.4,0-8.1-3.1-8.1-7.7s3.6-7.6,8.1-7.6
				c2.6,0,5.2,1.1,6.5,3.4v-3.3H171.1z M156.6,204.4c0,3.7,2.9,6.3,6.5,6.3c8.8,0,8.8-12.5,0-12.5
				C159.5,198.1,156.6,200.6,156.6,204.4z"/>
			<path class="st0" d="M170.9,196.9h1.7l5.8,13.2l5.8-13.2h1.7l-6.6,14.9h-1.7L170.9,196.9z"/>
			<path class="st0" d="M185.7,204.4c0-4.5,3.6-7.7,8.1-7.7s8.4,2.6,7.8,8.4h-14.3c0.3,3.5,3.2,5.5,6.5,5.5c2.1,0,4.5-0.8,5.7-2.3
				l1.1,0.8c-1.5,1.9-4.3,2.9-6.8,2.9C189.3,212,185.7,209.1,185.7,204.4z M200.2,203.7c0-3.7-2.6-5.7-6.4-5.7
				c-3.3,0-6.1,2.1-6.5,5.7H200.2z"/>
			<path class="st0" d="M205.3,196.9v2.7c1.2-2.1,3.4-2.9,5.6-2.9c4.2,0,7.2,2.4,7.2,6.6v8.6h-1.6v-8.6c0-3.4-2.2-5.2-5.6-5.2
				c-3.3,0-5.6,2.4-5.6,5.4v8.3h-1.6v-14.9H205.3z"/>
			<path class="st0" d="M229.2,200.7h12.9v1.5h-12.9v9.6h-1.7v-21.2h15.1v1.6h-13.4V200.7z"/>
			<path class="st0" d="M243.5,204.4c0-4.7,3.6-7.8,8.1-7.8s8.1,3,8.1,7.8s-3.6,7.6-8.1,7.6S243.5,209.1,243.5,204.4z M258,204.4
				c0-3.9-2.9-6.4-6.5-6.4c-3.6,0-6.5,2.5-6.5,6.4s2.9,6.2,6.5,6.2C255.1,210.6,258,208.2,258,204.4z"/>
			<path class="st0" d="M262.8,196.9l0.1,2.7c1-2,3.2-2.8,5.3-2.8c1.2,0,2.3,0.3,3.4,0.9l-0.7,1.2c-0.8-0.5-1.8-0.7-2.7-0.7
				c-3,0-5.2,2.3-5.2,5v8.7h-1.6v-14.9H262.8z"/>
			<path class="st0" d="M293,190.7h1l6.9,19.3l7-19.3h1.9l-7.9,21.2h-1.9l-3.6-9.9l-2.8-8.4l-2.8,8.3l-3.6,10h-1.9l-7.9-21.2h1.8
				l6.9,19.3L293,190.7z"/>
			<path class="st0" d="M306.7,204.4c0-4.7,3.6-7.8,8.1-7.8c4.5,0,8.1,3,8.1,7.8s-3.6,7.6-8.1,7.6
				C310.3,212,306.7,209.1,306.7,204.4z M321.3,204.4c0-3.9-2.9-6.4-6.5-6.4s-6.5,2.5-6.5,6.4s2.9,6.2,6.5,6.2
				S321.3,208.2,321.3,204.4z"/>
			<path class="st0" d="M326,196.9l0.1,2.7c1-2,3.2-2.8,5.3-2.8c1.2,0,2.3,0.3,3.4,0.9l-0.7,1.2c-0.8-0.5-1.8-0.7-2.7-0.7
				c-3,0-5.2,2.3-5.2,5v8.7h-1.6v-14.9H326z"/>
			<path class="st0" d="M336.7,190.7v12.7l7.5-6.5h2.1v0.1l-8,7l9,7.8v0.1h-2l-8.5-7.3v7.3h-1.5v-21.1H336.7z"/>
			<path class="st0" d="M349.4,192c0,1.6-2.5,1.6-2.5,0S349.4,190.5,349.4,192z M347.3,196.8v15h1.6v-15H347.3z"/>
			<path class="st0" d="M353,196.9v2.7c1.2-2.1,3.4-2.9,5.6-2.9c4.2,0,7.2,2.4,7.2,6.6v8.6h-1.6v-8.6c0-3.4-2.2-5.2-5.6-5.2
				c-3.3,0-5.6,2.4-5.6,5.4v8.3h-1.6v-14.9H353z"/>
			<path class="st0" d="M380.7,196.3l1,0.8l-1.5,1.7c1.1,1.1,2,2.7,2,5.1c0,2.6-1.6,5.2-4.3,6.3c2.8,0.9,4.3,2.8,4.3,5.3
				c0,4-3.3,5.9-7.5,5.9c-4.2,0-7.5-2.2-7.5-5.9h1.6c0,3,2.8,4.5,5.9,4.5s6-1.3,6-4.5c0-3.2-3-4.5-6-4.5c-4.6,0-7.4-3.2-7.4-7.2
				c0-4.6,3.3-7.3,7.4-7.3c1.6,0,3.3,0.5,4.5,1.4L380.7,196.3z M368.8,203.9c0,3.1,2.2,5.7,5.9,5.7c3.3,0,5.9-2.7,5.9-5.7
				c0-3.8-2.7-5.8-5.9-5.8C371.4,198.1,368.8,200,368.8,203.9z"/>
			<path class="st0" d="M408.5,211.8l-2.5-5.2h-13.4l-2.4,5.2h-1.9l10.1-21.1h1.9l10.1,21.1H408.5z M405.4,205.1l-6-12.9l-6,12.9
				H405.4z"/>
			<path class="st0" d="M425.2,190.7v21.1h-1.5v-3.3c-1.3,2.3-3.9,3.5-6.6,3.5c-4.4,0-7.9-2.7-7.9-7.7c0-4.9,3.5-7.7,8-7.7
				c2.7,0,5.3,1.1,6.6,3.5v-9.5H425.2z M410.7,204.4c0,4.1,2.9,6.3,6.5,6.3c3.7,0,6.5-2.6,6.5-6.3c0-3.7-2.8-6.2-6.5-6.2
				C413.6,198.1,410.7,200.2,410.7,204.4z"/>
			<path class="st0" d="M440.2,211.8v-2.7c-1.2,2.1-3.4,2.9-5.6,2.9c-4.2,0-7.2-2.4-7.2-6.6v-8.6h1.6v8.6c0,3.4,2.2,5.2,5.6,5.2
				c3.3,0,5.6-2.4,5.6-5.4v-8.3h1.6v14.9H440.2z"/>
			<path class="st0" d="M445.6,190.7v21.1H444v-21.1H445.6z"/>
			<path class="st0" d="M451.7,192.4v4.5h5.4v1.2h-5.4v9.1c0,2,0.4,3.4,2.9,3.4c0.8,0,1.6-0.2,2.4-0.6l0.5,1.2c-1,0.5-2,0.8-3,0.8
				c-3.4,0-4.5-1.9-4.5-4.8v-9.1h-3.4v-1.2h3.4v-4.3L451.7,192.4z"/>
			<path class="st0" d="M469.6,199.6c-1.6-1.3-3.2-1.6-4.9-1.6c-2.5,0-4.8,0.8-4.8,2.7c0.1,2,2.8,2.4,4.8,2.7
				c2.8,0.5,6.7,0.9,6.5,4.4c-0.1,3.3-3.7,4.2-6.5,4.2s-5.6-1-6.9-3l1.2-1c1.3,1.8,3.7,2.5,5.8,2.5c1.9,0,4.8-0.5,4.9-2.8
				c0.1-2.1-2.6-2.6-5.2-3c-3.1-0.5-6.1-1-6.2-4c0-2.9,3.1-4.2,6.3-4.2c2.3,0,4.3,0.6,5.9,2L469.6,199.6z"/>
		</g>
	</g>
</g>
</svg>
