<?xml version="1.0" encoding="utf-8"?>
<!-- Generator: Adobe Illustrator 28.2.0, SVG Export Plug-In . SVG Version: 6.00 Build 0)  -->
<svg version="1.1" id="Layer_1" xmlns="http://www.w3.org/2000/svg" xmlns:xlink="http://www.w3.org/1999/xlink" x="0px" y="0px"
	 viewBox="0 0 553.2 220.9" style="enable-background:new 0 0 553.2 220.9;" xml:space="preserve">
<style type="text/css">
	.st0{fill:#51B2E6;}
	.st1{fill:#2D348F;}
	.st2{fill:#202A89;}
</style>
<g>
	<g>
		<g>
			<g>
				<g>
					<path class="st0" d="M137.2,52h13.5l-18.5,54.5h-11.7l-5-15.2L109.4,73l-5.9,18.3l-5.1,15.2H87L68.4,52h13.5l6.7,21.7l4.3,15.5
						l12-37.2h8.9l12.3,37.5l4.6-15.7L137.2,52z"/>
				</g>
			</g>
			<g>
				<g>
					<path class="st0" d="M182.8,53.1L177.1,68l7.1,17.8h-13.9l-4.2,11h22.4l3.9,9.8h13.4L182.8,53.1z"/>
				</g>
			</g>
			<g>
				<g>
					<path class="st0" d="M253.7,52l-21.6,33.2v21.3h-12.3V85.2L199,52h14.5l12.6,21.2L238.9,52H253.7z"/>
				</g>
			</g>
		</g>
	</g>
	<g>
		<path class="st1" d="M324.5,55.4h-34.7v22.8h32.8v3.3h-32.8v25.2h-3.7V52h38.4L324.5,55.4L324.5,55.4z"/>
		<path class="st1" d="M358.5,85.6h-17.1v21h-3.7V52h25.5c3.8,0,7.2,0.7,10,2.1c2.9,1.4,5.1,3.4,6.7,5.9s2.4,5.5,2.4,8.8
			s-0.8,6.2-2.4,8.8c-1.6,2.5-3.8,4.5-6.6,5.9c-2.9,1.4-6.2,2.1-10,2.1l20.8,21h-4.8L358.5,85.6z M374.4,59
			c-2.8-2.4-6.5-3.7-11.2-3.7h-21.8v27h21.8c4.7,0,8.4-1.2,11.2-3.7c2.8-2.4,4.2-5.7,4.2-9.8S377.2,61.5,374.4,59z"/>
		<path class="st1" d="M406.8,103.9c-4.5-2.4-8-5.7-10.5-10s-3.8-9.2-3.8-14.6c0-5.5,1.3-10.3,3.8-14.6c2.5-4.3,6-7.6,10.5-10
			s9.6-3.6,15.3-3.6c5.7,0,10.8,1.2,15.3,3.6c4.5,2.4,8,5.7,10.5,10s3.8,9.2,3.8,14.6c0,5.5-1.3,10.3-3.8,14.6
			c-2.5,4.3-6,7.6-10.5,10s-9.6,3.6-15.3,3.6S411.3,106.3,406.8,103.9z M435.5,101.1c3.9-2.1,7-5.1,9.2-8.8
			c2.2-3.8,3.3-8.1,3.3-12.9s-1.1-9.1-3.3-12.9c-2.2-3.8-5.3-6.7-9.2-8.8c-3.9-2.1-8.4-3.2-13.4-3.2s-9.5,1.1-13.4,3.2
			c-3.9,2.1-7,5.1-9.2,8.8c-2.2,3.8-3.3,8.1-3.3,12.9s1.1,9.1,3.3,12.9c2.2,3.8,5.3,6.7,9.2,8.8c3.9,2.1,8.4,3.2,13.4,3.2
			C427.1,104.2,431.6,103.2,435.5,101.1z"/>
		<path class="st1" d="M520,52h4v54.5h-3.6V57.2L495,89.9h-1l-25.5-32.6v49.2h-3.7V52h4l25.5,32.8L520,52z"/>
	</g>
	<g>
		<g>
			<g>
				<g>
					<path class="st0" d="M395.5,120h3.8v51.2h34.6v3.4h-38.4V120z"/>
				</g>
			</g>
			<g>
				<g>
					<path class="st0" d="M444.2,120h3.8v51.2h34.6v3.4h-38.4V120z"/>
				</g>
			</g>
			<g>
				<g>
					<path class="st0" d="M502.2,171.9c-4.7-2.4-8.4-5.7-11-10s-3.9-9.2-3.9-14.6c0-5.5,1.3-10.3,3.9-14.6s6.3-7.6,11-10
						s10-3.6,16-3.6c4.1,0,8.1,0.7,11.7,2.1c3.7,1.4,6.9,3.4,9.8,6l-2.6,2.3c-2.5-2.3-5.4-4-8.6-5.3c-3.2-1.2-6.6-1.8-10.2-1.8
						c-5.3,0-10,1.1-14.2,3.2c-4.1,2.1-7.4,5-9.6,8.8c-2.3,3.8-3.4,8.1-3.4,13s1.1,9.2,3.4,13s5.5,6.7,9.6,8.8s8.9,3.2,14.2,3.2
						c3.6,0,7.1-0.6,10.4-1.8c3.3-1.2,6.3-3,8.9-5.3l2.5,2.3c-2.8,2.6-6.1,4.7-9.8,6c-3.7,1.4-7.7,2.1-11.9,2.1
						C512.2,175.5,506.9,174.3,502.2,171.9z"/>
				</g>
			</g>
		</g>
	</g>
	<g>
		<g>
			<g>
				<g>
					<path class="st0" d="M113.6,195c0,4.9-3.4,9.7-10.1,9.7s-10.1-4.8-10.1-9.7c0-5,3.3-9.7,10.1-9.7S113.6,189.9,113.6,195z
						 M95,195c0,4.2,2.9,8.4,8.5,8.4c5.7,0,8.6-4.1,8.6-8.4c0-4.3-2.8-8.3-8.6-8.3S95,190.5,95,195z"/>
				</g>
			</g>
			<g>
				<g>
					<path class="st0" d="M115.3,209.9v-18.8h1.4v3.1c1.1-2,3.4-3.3,6.1-3.3c3.8,0.1,6.8,2.5,6.8,6.8c0,4.4-3.2,6.9-7.1,6.9
						c-2.4,0-4.6-1.1-5.8-3.3v8.6H115.3z M128.2,197.7c0-3.7-2.6-5.5-5.8-5.5c-3.3,0-5.7,2.3-5.7,5.6c0,3.2,2.5,5.6,5.7,5.6
						C125.6,203.3,128.2,201.5,128.2,197.7z"/>
				</g>
			</g>
			<g>
				<g>
					<path class="st0" d="M134.5,187.1v4h4.8v1.1h-4.8v8.1c0,1.8,0.4,3.1,2.6,3.1c0.7,0,1.5-0.2,2.2-0.5l0.5,1.1
						c-0.9,0.4-1.8,0.7-2.6,0.7c-3,0-4-1.7-4-4.3v-8.1h-3v-1.1h3v-3.9L134.5,187.1z"/>
				</g>
			</g>
			<g>
				<g>
					<path class="st0" d="M142.6,186.8c0,1.4-2.2,1.4-2.2,0C140.4,185.4,142.6,185.4,142.6,186.8z M140.8,191.1v13.3h1.4v-13.3
						H140.8z"/>
				</g>
			</g>
			<g>
				<g>
					<path class="st0" d="M165.3,204.3v-7.9c0-2.5-1.8-4.3-4.5-4.3s-4.5,1.9-4.5,4.4v7.9h-1.4v-7.9c0-2.5-1.9-4.4-4.5-4.4
						c-2.7,0-4.5,1.9-4.5,4.4v7.9h-1.4v-13.2h1.3v2.2c1-1.7,2.8-2.5,4.6-2.5c2.1,0,4.4,0.9,5.2,3.3c0.9-2.2,3-3.3,5.2-3.3
						c3.4,0,5.9,2.3,5.9,5.6v7.9L165.3,204.3L165.3,204.3z"/>
				</g>
			</g>
			<g>
				<g>
					<path class="st0" d="M170.8,186.8c0,1.4-2.2,1.4-2.2,0C168.5,185.4,170.8,185.4,170.8,186.8z M168.9,191.1v13.3h1.4v-13.3
						H168.9z"/>
				</g>
			</g>
			<g>
				<g>
					<path class="st0" d="M172.2,191.1h10.6v0.5l-8.9,11.5h8.9v1.2h-11.1v-0.5l9-11.6h-8.5V191.1z"/>
				</g>
			</g>
			<g>
				<g>
					<path class="st0" d="M185.8,186.8c0,1.4-2.2,1.4-2.2,0C183.6,185.4,185.8,185.4,185.8,186.8z M184,191.1v13.3h1.4v-13.3H184z"
						/>
				</g>
			</g>
			<g>
				<g>
					<path class="st0" d="M189,191.1v2.4c1.1-1.8,3-2.6,5-2.6c3.8,0,6.4,2.2,6.4,5.8v7.6H199v-7.6c0-3-2-4.6-5-4.6
						c-2.9,0-4.9,2.1-4.9,4.8v7.4h-1.4v-13.2L189,191.1L189,191.1z"/>
				</g>
			</g>
			<g>
				<g>
					<path class="st0" d="M213.6,190.6l0.9,0.8l-1.4,1.5c1,1,1.7,2.4,1.7,4.5c0,2.3-1.5,4.6-3.8,5.6c2.5,0.8,3.8,2.5,3.8,4.7
						c0,3.6-3,5.3-6.7,5.3s-6.7-1.9-6.7-5.3h1.4c0,2.7,2.4,4,5.3,4s5.3-1.2,5.3-4s-2.7-4-5.3-4c-4.1,0-6.6-2.9-6.6-6.4
						c0-4.1,3-6.5,6.6-6.5c1.4,0,2.9,0.5,4,1.2L213.6,190.6z M203,197.3c0,2.7,2,5.1,5.2,5.1c2.9,0,5.3-2.4,5.3-5.1
						c0-3.4-2.4-5.1-5.3-5.1C205.4,192.2,203,193.9,203,197.3z"/>
				</g>
			</g>
			<g>
				<g>
					<path class="st0" d="M236.7,204.3v-8.5H224v8.5h-1.5v-18.8h1.5v8.9h12.7v-8.9h1.5v18.8H236.7z"/>
				</g>
			</g>
			<g>
				<g>
					<path class="st0" d="M252,204.3V202c-1.1,1.8-3,2.6-5,2.6c-3.8,0-6.4-2.2-6.4-5.8v-7.6h1.4v7.6c0,3,2,4.6,5,4.6
						c2.9,0,4.9-2.1,4.9-4.8v-7.4h1.4v13.3H252V204.3z"/>
				</g>
			</g>
			<g>
				<g>
					<path class="st0" d="M276.2,204.3v-7.9c0-2.5-1.8-4.3-4.5-4.3s-4.5,1.9-4.5,4.4v7.9h-1.4v-7.9c0-2.5-1.9-4.4-4.5-4.4
						s-4.5,1.9-4.5,4.4v7.9h-1.4v-13.2h1.3v2.2c1-1.7,2.8-2.5,4.6-2.5c2.1,0,4.4,0.9,5.2,3.3c0.9-2.2,3-3.3,5.2-3.3
						c3.4,0,5.9,2.3,5.9,5.6v7.9L276.2,204.3L276.2,204.3z"/>
				</g>
			</g>
			<g>
				<g>
					<path class="st0" d="M293.3,191.1c0,4.4,0,8.8,0,13.2h-1.4v-2.8c-1.4,2.1-3.5,3-5.8,3c-3.9,0-7.1-2.8-7.1-6.8s3.2-6.8,7.1-6.8
						c2.3,0,4.6,1,5.8,3.1v-2.9H293.3z M280.4,197.7c0,3.3,2.6,5.5,5.8,5.5c7.8,0,7.8-11.1,0-11.1
						C283,192.2,280.4,194.4,280.4,197.7z"/>
				</g>
			</g>
			<g>
				<g>
					<path class="st0" d="M296.7,191.1v2.4c1.1-1.8,3-2.6,5-2.6c3.8,0,6.4,2.2,6.4,5.8v7.6h-1.4v-7.6c0-3-2-4.6-5-4.6
						c-2.9,0-4.9,2.1-4.9,4.8v7.4h-1.4v-13.2L296.7,191.1L296.7,191.1z"/>
				</g>
			</g>
			<g>
				<g>
					<path class="st0" d="M332.9,201.7c-2,1.9-4.6,2.8-7.3,2.8c-6.7,0-10.2-4.4-10.3-9.5c-0.1-5,3.4-9.7,10.3-9.7
						c2.6,0,5.3,0.9,7.3,2.8l-1.1,0.9c-1.7-1.6-4-2.4-6.2-2.4c-5.8,0-8.8,3.9-8.8,8.4c0.1,4.4,3,8.2,8.8,8.2c2.2,0,4.5-0.8,6.2-2.4
						L332.9,201.7z"/>
				</g>
			</g>
			<g>
				<g>
					<path class="st0" d="M333.6,197.8c0-4.2,3.2-6.9,7.1-6.9c4,0,7.1,2.7,7.1,6.9s-3.2,6.8-7.1,6.8
						C336.8,204.5,333.6,202,333.6,197.8z M346.5,197.8c0-3.4-2.6-5.7-5.8-5.7s-5.8,2.2-5.8,5.7c0,3.4,2.6,5.5,5.8,5.5
						S346.5,201.2,346.5,197.8z"/>
				</g>
			</g>
			<g>
				<g>
					<path class="st0" d="M350.7,191.1v2.4c1.1-1.8,3-2.6,5-2.6c3.8,0,6.4,2.2,6.4,5.8v7.6h-1.4v-7.6c0-3-2-4.6-5-4.6
						c-2.9,0-4.9,2.1-4.9,4.8v7.4h-1.4v-13.2L350.7,191.1L350.7,191.1z"/>
				</g>
			</g>
			<g>
				<g>
					<path class="st0" d="M365.4,191.1v2.4c1.1-1.8,3-2.6,5-2.6c3.8,0,6.4,2.2,6.4,5.8v7.6h-1.4v-7.6c0-3-2-4.6-5-4.6
						c-2.9,0-4.9,2.1-4.9,4.8v7.4H364v-13.2L365.4,191.1L365.4,191.1z"/>
				</g>
			</g>
			<g>
				<g>
					<path class="st0" d="M377.9,197.7c0-4,3.2-6.8,7.1-6.8c4,0,7.5,2.3,6.9,7.5h-12.7c0.3,3.1,2.8,4.9,5.7,4.9c1.9,0,4-0.7,5.1-2
						l1,0.8c-1.4,1.7-3.8,2.5-6.1,2.5C381.1,204.5,377.9,201.9,377.9,197.7z M390.7,197.2c0-3.3-2.3-5.1-5.7-5.1
						c-2.9,0-5.4,1.9-5.7,5.1H390.7z"/>
				</g>
			</g>
			<g>
				<g>
					<path class="st0" d="M405.4,202.5c-1.4,1.3-3.3,2-5.1,2c-4,0-7.2-2.6-7.2-6.8s3.2-6.8,7.2-6.8c1.9,0,3.7,0.7,5.1,2l-0.9,0.8
						c-1.1-1.1-2.7-1.6-4.2-1.6c-3.2,0-5.9,2-5.9,5.5c0,3.6,2.7,5.5,5.9,5.5c1.5,0,3-0.6,4.2-1.6L405.4,202.5z"/>
				</g>
			</g>
			<g>
				<g>
					<path class="st0" d="M409.8,187.1v4h4.8v1.1h-4.8v8.1c0,1.8,0.4,3.1,2.6,3.1c0.7,0,1.5-0.2,2.2-0.5l0.5,1.1
						c-0.9,0.4-1.8,0.7-2.6,0.7c-3,0-4-1.7-4-4.3v-8.1h-3v-1.1h3v-3.9L409.8,187.1z"/>
				</g>
			</g>
			<g>
				<g>
					<path class="st0" d="M417.9,186.8c0,1.4-2.2,1.4-2.2,0C415.7,185.4,417.9,185.4,417.9,186.8z M416.1,191.1v13.3h1.4v-13.3
						H416.1z"/>
				</g>
			</g>
			<g>
				<g>
					<path class="st0" d="M419.4,197.8c0-4.2,3.2-6.9,7.1-6.9c4,0,7.1,2.7,7.1,6.9s-3.2,6.8-7.1,6.8
						C422.6,204.5,419.4,202,419.4,197.8z M432.3,197.8c0-3.4-2.6-5.7-5.8-5.7s-5.8,2.2-5.8,5.7c0,3.4,2.6,5.5,5.8,5.5
						S432.3,201.2,432.3,197.8z"/>
				</g>
			</g>
			<g>
				<g>
					<path class="st0" d="M436.6,191.1v2.4c1.1-1.8,3-2.6,5-2.6c3.8,0,6.4,2.2,6.4,5.8v7.6h-1.4v-7.6c0-3-2-4.6-5-4.6
						c-2.9,0-4.9,2.1-4.9,4.8v7.4h-1.4v-13.2L436.6,191.1L436.6,191.1z"/>
				</g>
			</g>
			<g>
				<g>
					<path class="st0" d="M459.5,193.5c-1.4-1.2-2.8-1.4-4.4-1.4c-2.2,0-4.3,0.8-4.2,2.4c0.1,1.8,2.5,2.1,4.3,2.4
						c2.5,0.4,6,0.8,5.8,3.9c-0.1,2.9-3.3,3.7-5.8,3.7s-4.9-0.9-6.2-2.7l1-0.9c1.2,1.6,3.3,2.3,5.2,2.3c1.7,0,4.3-0.4,4.4-2.5
						c0.1-1.9-2.3-2.3-4.6-2.6c-2.7-0.4-5.4-0.9-5.5-3.6c0-2.6,2.7-3.7,5.6-3.7c2.1,0,3.8,0.5,5.2,1.8L459.5,193.5z"/>
				</g>
			</g>
		</g>
	</g>
	<g>
		<path class="st2" d="M173,171c-4.3-2.4-7.6-5.7-10-10c-2.3-4.3-3.5-9.3-3.5-15s1.2-10.7,3.5-15c2.3-4.3,5.7-7.6,10-10
			s9.3-3.5,15-3.5s10.7,1.2,15,3.5c4.3,2.4,7.6,5.7,10,10c2.3,4.3,3.5,9.3,3.5,15s-1.2,10.7-3.5,15s-5.7,7.6-10,10s-9.3,3.5-15,3.5
			C182.3,174.6,177.3,173.4,173,171z M196.4,161.1c2.4-1.4,4.3-3.4,5.7-6c1.3-2.6,2-5.6,2-9s-0.7-6.4-2-9s-3.2-4.6-5.7-6
			c-2.4-1.4-5.3-2.1-8.4-2.1c-3.2,0-6,0.7-8.4,2.1c-2.4,1.4-4.3,3.4-5.6,6s-2,5.6-2,9s0.7,6.4,2,9s3.2,4.6,5.6,6s5.2,2.1,8.4,2.1
			C191.2,163.2,194,162.5,196.4,161.1z"/>
		<path class="st2" d="M249.1,155.3h-7.2v18h-12.4v-54.5h25.8c3.8,0,7.2,0.8,10.1,2.3s5.1,3.7,6.7,6.5c1.6,2.8,2.3,6,2.3,9.7
			c0,4.2-1,7.7-3.1,10.7s-5.1,5.1-8.9,6.3l15,19.1h-14.8L249.1,155.3z M260,131.6c-1.4-1.3-3.5-2-6.1-2h-12V145h12
			c2.7,0,4.7-0.7,6.1-2s2.1-3.2,2.1-5.6S261.4,133,260,131.6z"/>
		<path class="st2" d="M335.9,173.3h-16.1l-18.6-21.7v21.7h-12.3v-54.5h12.3v21.3l17.4-21.3h15.3l-22.3,26.7L335.9,173.3z"/>
		<path class="st2" d="M354.4,162.7c1.3,1.3,1.9,2.9,1.9,5c0,1.7-0.4,3.6-1.1,5.6s-2,5.2-4,9.5h-6.4l2.1-9.3
			c-1.3-0.4-2.3-1.1-3.1-2.1c-0.8-1.1-1.1-2.3-1.1-3.9c0-2,0.6-3.6,1.9-4.8s2.9-1.8,4.9-1.8C351.5,160.8,353.2,161.4,354.4,162.7z"
			/>
	</g>
	<path d="M180.1,18.9l-15.4,9.9h11.6l-48.1,127.4L116,118.7h-9L95,156L50.2,52H37l-23.8,54.5h13.2l3.9-9.8h26.1L89,173.2h11.5
		l5.1-15.2l5.9-18.3l6.1,18.3l5,15.2h11.7L197.5,7.9L180.1,18.9z M34.9,85.8l8.7-21.5l8.5,21.5H34.9z"/>
	<path class="st2" d="M180.1,18.9l-15.4,9.9h11.6l-48.1,127.4L116,118.7h-9L95,156L50.2,52H37l-23.8,54.5h13.2l3.9-9.8h26.1
		L89,173.2h11.5l5.1-15.2l5.9-18.3l6.1,18.3l5,15.2h11.7L197.5,7.9L180.1,18.9z M34.9,85.8l8.7-21.5l8.5,21.5H34.9z"/>
</g>
</svg>
